<?xml version="1.0" encoding="UTF-8"?>
<svg width="24px" height="23px" viewBox="0 0 24 23" version="1.1" xmlns="http://www.w3.org/2000/svg" xmlns:xlink="http://www.w3.org/1999/xlink">
    <!-- Generator: Sketch 59.1 (86144) - https://sketch.com -->
    <title>标签栏icon/优惠-点亮</title>
    <desc>Created with Sketch.</desc>
    <g id="组件" stroke="none" stroke-width="1" fill="none" fill-rule="evenodd">
        <g id="标签栏icon/优惠-点亮" transform="translate(0.000000, -1.000000)">
            <g>
                <rect id="矩形" fill="#FFECEC" opacity="0" x="0" y="0" width="24" height="24"></rect>
                <g id="礼物" transform="translate(0.000000, 1.000000)">
                    <path d="M4.63451087,5.71773098 C4.13009511,5.71773098 3.7173913,5.30502717 3.7173913,4.80061141 C3.7173913,2.2734375 5.77581522,0.215013587 8.30298913,0.215013587 C8.54755435,0.215013587 8.78192935,0.311820652 8.95006793,0.485054348 L11.9713913,3.50601359 L14.9928668,0.485054348 C15.1661005,0.311820652 15.4004755,0.215013587 15.6399457,0.215013587 C18.1671196,0.215013587 20.2255435,2.2734375 20.2255435,4.80061141 C20.2255435,5.30502717 19.8128397,5.71773098 19.3084239,5.71773098 L4.63451087,5.71773098 Z M16.0016984,2.06963315 L14.1878397,3.88349185 L18.2384511,3.88349185 C17.8970788,2.92561141 17.0411005,2.20720109 16.0016984,2.06963315 Z M7.94633152,2.06963315 C6.90692935,2.20720109 6.05095109,2.92561141 5.7095788,3.88349185 L9.76019022,3.88349185 L7.94633152,2.06963315 Z" id="合并形状" fill="#FF004F" fill-rule="nonzero"></path>
                    <path d="M22.9769022,5.2591712 C23.4813179,5.2591712 23.8940217,5.671875 23.8940217,6.17629076 L23.8940217,8.92764946 C23.8940217,9.18240489 23.6902174,9.38620924 23.435462,9.38620924 L22.058913,9.3861712 L22.0597826,20.8502038 C22.0597826,21.8641304 21.2394701,22.6844429 20.2255435,22.6844429 L3.7173913,22.6844429 C2.70346467,22.6844429 1.88315217,21.8641304 1.88315217,20.8502038 L1.88291304,9.3861712 L0.507472826,9.38620924 C0.252717391,9.38620924 0.0489130435,9.18240489 0.0489130435,8.92764946 L0.0489130435,6.17629076 C0.0489130435,5.671875 0.461616848,5.2591712 0.966032609,5.2591712 L22.9769022,5.2591712 Z" id="合并形状" fill="#FF004F"></path>
                    <polygon id="路径" fill="#FFFFFF" points="11.1372283 9.38620924 12.6372283 9.38620924 12.6372283 22.6844429 11.1372283 22.6844429"></polygon>
                </g>
            </g>
        </g>
    </g>
</svg>