<?xml version="1.0" encoding="UTF-8"?>
<svg width="22px" height="23px" viewBox="0 0 22 23" version="1.1" xmlns="http://www.w3.org/2000/svg" xmlns:xlink="http://www.w3.org/1999/xlink">
    <!-- Generator: Sketch 59.1 (86144) - https://sketch.com -->
    <title>标签栏icon/首页-点亮</title>
    <desc>Created with Sketch.</desc>
    <g id="组件" stroke="none" stroke-width="1" fill="none" fill-rule="evenodd">
        <g id="标签栏icon/首页-点亮" transform="translate(-1.000000, -1.000000)">
            <g>
                <rect id="矩形" fill="#FFECEC" opacity="0" x="0" y="0" width="24" height="24"></rect>
                <g id="分组-2" transform="translate(1.000000, 1.000000)">
                    <path d="M19.1893878,22.6103401 L2.81061224,22.6103401 C1.85757823,22.6103401 1.08653061,21.8392925 1.08653061,20.8862585 L1.08653061,12.2658503 C1.08653061,11.3128163 1.85757823,10.5417687 2.81061224,10.5417687 L19.1893878,10.5417687 C20.1424218,10.5417687 20.9134694,11.3128163 20.9134694,12.2658503 L20.9134694,20.8862585 C20.9134694,21.8345034 20.1424218,22.6103401 19.1893878,22.6103401 Z" id="路径" fill="#FF004F"></path>
                    <path d="M9.77877551,21.7626667 L0.636353741,12.6202449 C-0.0389115646,11.9449796 -0.0389115646,10.8530612 0.636353741,10.182585 L9.77877551,1.04016327 C10.4540408,0.364897959 11.5459592,0.364897959 12.2164354,1.04016327 L21.3636463,10.182585 C22.0389116,10.8578503 22.0389116,11.9497687 21.3636463,12.6202449 L12.2212245,21.7626667 C11.5459592,22.437932 10.4540408,22.437932 9.77877551,21.7626667 Z" id="路径" fill="#FF004F"></path>
                    <path d="M14.4481633,22.6103401 L7.55183673,22.6103401 L7.55183673,16.5760544 C7.55183673,15.6230204 8.32288435,14.8519728 9.27591837,14.8519728 L12.7240816,14.8519728 C13.6771156,14.8519728 14.4481633,15.6230204 14.4481633,16.5760544 L14.4481633,22.6103401 Z" id="路径" fill="#FFFFFF"></path>
                </g>
            </g>
        </g>
    </g>
</svg>