<?xml version="1.0" encoding="UTF-8"?>
<svg width="22px" height="22px" viewBox="0 0 22 22" version="1.1" xmlns="http://www.w3.org/2000/svg" xmlns:xlink="http://www.w3.org/1999/xlink">
    <!-- Generator: Sketch 59.1 (86144) - https://sketch.com -->
    <title>标签栏icon/购彩-点亮</title>
    <desc>Created with Sketch.</desc>
    <g id="组件" stroke="none" stroke-width="1" fill="none" fill-rule="evenodd">
        <g id="标签栏icon/购彩-点亮" transform="translate(-1.000000, -2.000000)">
            <g>
                <rect id="矩形" fill="#FFECEC" opacity="0" x="0" y="0" width="24" height="24"></rect>
                <g id="分组" transform="translate(1.000000, 2.000000)" fill="#FF004F">
                    <path d="M19.8264009,5.5 C20.9309704,5.5 21.8264009,6.3954305 21.8264009,7.5 C21.8264009,7.55543547 21.8240961,7.61084698 21.8194924,7.66609096 L20.7778258,20.166091 C20.6914437,21.2026752 19.8249115,22 18.7847342,22 L3.21526576,22 C2.17508849,22 1.30855627,21.2026752 1.22217425,20.166091 L0.18050758,7.66609096 C0.0887780758,6.56533691 0.906754087,5.59863799 2.00750814,5.50690848 C2.06275212,5.50230482 2.11816363,5.5 2.1735991,5.5 L19.8264009,5.5 Z M15.125,8.9375 C14.7453042,8.9375 14.4375,9.24530423 14.4375,9.625 C14.4375,11.5234788 12.8984788,13.0625 11,13.0625 C9.10152117,13.0625 7.5625,11.5234788 7.5625,9.625 C7.5625,9.24530423 7.25469577,8.9375 6.875,8.9375 C6.49530423,8.9375 6.1875,9.24530423 6.1875,9.625 C6.1875,12.2828704 8.34212964,14.4375 11,14.4375 C13.6578704,14.4375 15.8125,12.2828704 15.8125,9.625 C15.8125,9.24530423 15.5046958,8.9375 15.125,8.9375 Z" id="合并形状"></path>
                    <path d="M14,0 C15.6568542,0 17,1.34314575 17,3 L17,6 L15,6 L15,3 C15,2.44771525 14.5522847,2 14,2 L8,2 C7.44771525,2 7,2.44771525 7,3 L7,6 L5,6 L5,3 C5,1.34314575 6.34314575,0 8,0 L14,0 Z" id="合并形状" fill-rule="nonzero"></path>
                </g>
            </g>
        </g>
    </g>
</svg>