<svg xmlns="http://www.w3.org/2000/svg" xmlns:xlink="http://www.w3.org/1999/xlink" class="icon" viewBox="0 0 1024 1024" id="icon-switch-icon"><path d="M896 0A128.365714 128.365714 0 0 1 1024 128v512a128.365714 128.365714 0 0 1-128 128h-512A128.365714 128.365714 0 0 1 256 640v-512A128.365714 128.365714 0 0 1 384 0h512z m64 640v-512c0-35.181714-28.818286-64-64-64h-512c-35.218286 0-64 28.818286-64 64v512c0 35.181714 28.781714 64 64 64h512c35.181714 0 64-28.818286 64-64z m-256 256v-64H768v64a128.365714 128.365714 0 0 1-128 128h-512A128.365714 128.365714 0 0 1 0 896v-512A128.365714 128.365714 0 0 1 128 256h64v64H128c-35.181714 0-64 28.781714-64 64v512c0 35.181714 28.818286 64 64 64h512c35.181714 0 64-28.818286 64-64zM438.857143 585.142857a36.571429 36.571429 0 1 1 0-73.142857 36.571429 36.571429 0 0 1 0 73.142857z m182.857143 0a36.571429 36.571429 0 1 1 0-73.142857 36.571429 36.571429 0 0 1 0 73.142857z m182.857143 0a36.571429 36.571429 0 1 1 0-73.142857 36.571429 36.571429 0 0 1 0 73.142857z" fill="#ff464b" p-id="1199"></path></svg>