<svg xmlns="http://www.w3.org/2000/svg" xmlns:xlink="http://www.w3.org/1999/xlink" class="icon" viewBox="0 0 1075 1024" id="icon-game-platform"><path d="M750.590499 1023.997952H324.504951a324.607351 324.607351 0 0 1-229.221942-93.926212C33.843132 869.527861 0 789.323221 0 704.280191v-0.460799c0-85.14543 33.868732-165.375669 95.283009-225.893948A324.607351 324.607351 0 0 1 324.504951 383.999232h426.187948a324.607351 324.607351 0 0 1 229.221941 93.926212c61.439877 60.543879 95.283009 140.748519 95.28301 225.893948v0.460799c0 85.14543-33.868732 165.375669-95.28301 225.919549A324.76095 324.76095 0 0 1 750.590499 1023.997952zM324.504951 466.098268c-132.966134 0-241.202718 106.674987-241.202718 237.721124v0.460799c0 131.071738 108.236584 237.746725 241.202718 237.746725h426.187948c132.966134 0 241.202718-106.700587 241.202717-237.746725v-0.460799c0-131.046138-108.236584-237.721125-241.202717-237.721124H324.504951z" fill="#FF464B" p-id="1195"></path><path d="M255.999488 691.198618h153.599693v51.199897h-153.599693z" fill="#FF464B" p-id="1196"></path><path d="M307.199386 784.126432l0.383999-166.655667 64.639871 0.1792-0.384 166.655666L307.199386 784.126432z m418.635962 9.471981c-51.430297 0-93.363013-41.548717-93.363013-92.748615s41.830316-92.748615 93.363013-92.748614c51.558297 0 93.363013 41.523117 93.363014 92.748614 0 51.199898-41.804716 92.748615-93.363014 92.748615z m0-131.660537c-21.631957 0-39.295921 17.535965-39.295921 39.014322 0 21.503957 17.663965 39.039922 39.295921 39.039922s39.295921-17.535965 39.295922-39.039922a39.167922 39.167922 0 0 0-39.295922-39.014322z m-154.367691-205.08119l-64.409471-34.73913 112.690975-206.412387h-228.402744l-31.359937-55.27029L457.291885 0l62.847875 37.478325-63.923072 105.420589h225.177149l32.179136 53.708693-142.130916 260.249079z" fill="#FF464B" p-id="1197"></path></svg>